<?xml version="1.0" standalone="no"?>
<!DOCTYPE svg PUBLIC "-//W3C//DTD SVG 20010904//EN"
 "http://www.w3.org/TR/2001/REC-SVG-20010904/DTD/svg10.dtd">
<svg version="1.0" xmlns="http://www.w3.org/2000/svg"
 width="300.000000pt" height="300.000000pt" viewBox="0 0 300.000000 300.000000"
 preserveAspectRatio="xMidYMid meet">
<metadata>
Created by potrace 1.10, written by Peter Selinger 2001-2011
</metadata>
<g transform="translate(0.000000,300.000000) scale(0.100000,-0.100000)"
fill="#0045ff" stroke="none">
<path d="M1545 2219 c-319 -40 -723 -209 -954 -398 -41 -33 -49 -36 -115 -36
-113 -2 -200 -51 -253 -144 -15 -25 -42 -63 -59 -85 -18 -21 -40 -59 -48 -84
-21 -59 -21 -164 0 -203 21 -42 82 -107 115 -124 15 -8 40 -38 57 -68 84 -149
293 -258 572 -297 102 -14 352 -11 480 6 198 27 438 93 605 166 39 17 98 34
132 38 34 4 80 16 103 28 l41 20 42 -23 c86 -47 177 -38 230 24 21 24 27 26
94 23 162 -8 238 87 203 252 -11 56 -11 56 18 81 39 33 62 83 62 136 0 39 -5
48 -53 94 -68 64 -77 81 -77 149 0 229 -213 380 -621 440 -117 18 -451 20
-574 5z m520 -30 c281 -35 503 -166 553 -329 15 -48 25 -65 51 -81 18 -11 31
-23 27 -26 -3 -3 -13 0 -22 8 -22 18 -125 15 -184 -5 -43 -15 -45 -15 -70 8
-77 72 -163 73 -247 2 l-32 -27 -51 17 c-94 31 -213 4 -293 -65 l-37 -33 -27
20 c-48 34 -128 55 -181 48 -63 -8 -147 -51 -178 -90 l-26 -32 -36 35 c-56 52
-105 71 -193 71 -54 0 -80 4 -88 14 -7 8 -33 24 -59 37 -85 41 -217 26 -279
-32 l-21 -21 -31 23 -31 23 27 23 c172 143 454 281 723 352 246 65 493 86 705
60z m-680 -34 c-71 -18 -168 -47 -215 -64 -47 -17 -86 -31 -87 -31 -15 1 -330
-165 -343 -180 -3 -3 -21 -17 -40 -30 -54 -37 -100 -82 -100 -96 0 -15 47 -54
66 -54 7 0 29 11 48 24 56 38 126 51 196 36 33 -7 68 -21 79 -32 12 -10 21
-16 21 -13 0 4 6 0 14 -8 10 -9 39 -14 89 -15 87 -1 125 -15 185 -66 24 -20
47 -36 51 -36 3 0 24 17 46 39 60 57 97 73 176 73 58 1 80 -4 131 -30 l62 -30
35 29 c20 16 41 29 47 29 7 0 14 5 16 11 2 5 10 11 18 13 8 2 28 8 43 14 39
16 112 15 170 -3 l49 -15 45 35 c76 58 174 55 229 -6 19 -21 49 -24 90 -8 44
16 115 20 152 8 25 -8 37 -8 45 1 9 9 5 17 -15 35 -16 13 -37 47 -48 76 -40
101 -127 198 -215 241 -25 12 -45 26 -45 30 0 7 10 4 111 -41 26 -11 74 -43
107 -70 78 -65 112 -132 117 -229 5 -87 25 -136 63 -156 43 -22 72 -67 72
-111 0 -44 -12 -69 -57 -116 -33 -35 -34 -38 -26 -85 14 -79 8 -152 -14 -182
-30 -41 -70 -56 -158 -59 -71 -2 -83 -5 -109 -28 -61 -57 -147 -64 -231 -21
-38 20 -43 20 -94 -5 -24 -11 -64 -23 -90 -25 -25 -2 -61 -7 -78 -10 -26 -5
-39 -1 -64 20 -17 14 -34 26 -39 26 -4 0 -31 18 -60 41 l-52 41 -36 -24 c-107
-71 -239 -64 -338 17 -53 43 -68 45 -28 4 92 -97 261 -114 372 -37 l34 24 33
-32 c18 -17 52 -40 76 -51 l42 -20 -119 -42 c-551 -196 -1117 -170 -1356 62
-29 29 -69 57 -88 63 -34 11 -33 11 25 11 74 0 138 19 171 50 14 13 27 23 30
23 3 0 24 13 47 29 l42 29 28 -24 c39 -33 129 -58 184 -50 38 5 50 2 77 -19
90 -69 218 -73 310 -10 47 32 56 32 25 -1 -54 -58 -132 -88 -225 -86 -49 1
-134 27 -134 41 0 19 -59 39 -109 36 -56 -3 -139 16 -179 41 -13 9 -28 14 -35
11 -20 -6 77 -56 129 -66 27 -5 68 -7 91 -4 34 4 47 1 75 -21 85 -64 207 -75
304 -26 68 33 102 66 109 100 3 13 11 31 19 39 14 13 18 12 36 -12 26 -33 112
-75 170 -83 55 -7 122 9 173 42 l38 25 37 -32 c61 -54 117 -74 207 -74 62 0
90 5 122 21 l43 21 47 -23 c50 -26 120 -31 156 -13 12 6 34 23 49 37 24 22 35
25 92 23 133 -5 196 54 195 184 0 33 -5 69 -10 80 -7 15 -8 8 -4 -23 7 -56
-10 -120 -42 -153 -32 -35 -99 -53 -166 -46 -46 4 -55 2 -66 -15 -7 -11 -33
-29 -58 -40 -52 -23 -101 -20 -163 12 -38 20 -38 20 -87 -2 -99 -44 -231 -23
-325 52 l-36 30 -57 -30 c-104 -55 -239 -36 -319 45 l-31 30 -27 -30 c-14 -17
-51 -44 -80 -60 -73 -40 -169 -41 -245 -2 -28 15 -54 31 -57 36 -3 5 -37 9
-74 8 -74 -1 -118 12 -170 51 -30 21 -35 22 -50 9 -28 -24 -78 -46 -131 -58
-96 -20 -225 33 -284 118 -15 22 -27 44 -27 50 0 7 -4 14 -10 18 -16 10 11
-54 44 -103 59 -89 178 -142 285 -128 33 5 42 4 31 -4 -24 -16 -90 -33 -160
-39 -70 -6 -78 -17 -31 -42 16 -9 54 -38 83 -65 30 -27 83 -64 119 -83 60 -31
189 -79 234 -86 139 -23 208 -27 355 -22 185 6 205 9 410 52 20 4 118 31 157
43 17 6 34 8 37 4 3 -3 6 0 6 6 0 7 8 12 18 12 10 0 40 11 68 24 64 31 94 40
94 28 0 -9 -42 -30 -71 -36 -8 -2 -27 -9 -44 -15 -84 -35 -220 -73 -362 -102
-140 -28 -182 -32 -363 -35 -184 -4 -296 4 -350 24 -8 3 -28 7 -45 9 -16 3
-48 11 -70 19 -22 8 -47 16 -56 19 -24 5 -123 58 -127 67 -2 4 -8 8 -13 8 -31
0 -119 97 -158 173 -8 15 -36 41 -62 58 -27 17 -61 52 -79 80 -28 43 -32 57
-31 115 1 73 24 137 70 194 15 19 35 49 44 65 45 87 132 137 246 142 62 2 79
7 110 30 56 43 101 73 110 73 5 0 11 6 14 13 5 13 34 30 207 119 147 75 393
162 493 174 23 3 44 7 46 10 2 2 16 4 30 3 14 0 -32 -15 -104 -34z"/>
<path d="M1641 2035 c-2 -31 -40 -87 -53 -79 -7 4 -8 3 -4 -4 4 -7 -6 -15 -26
-21 -26 -7 -28 -9 -10 -10 32 -1 82 -53 82 -85 0 -14 5 -26 10 -26 6 0 10 12
10 26 0 32 50 84 82 84 18 0 14 4 -18 19 -39 18 -55 41 -67 96 -5 20 -5 20 -6
0z m23 -132 c-25 -23 -27 -23 -45 -7 -25 22 -24 32 4 54 21 18 23 18 44 -2
l23 -21 -26 -24z"/>
<path d="M1847 1912 c-31 -34 -14 -72 30 -72 16 0 27 9 35 26 11 23 10 29 -11
45 -29 23 -34 24 -54 1z m42 -34 c0 -16 -2 -18 -6 -8 -3 8 -11 18 -17 22 -7 5
-4 8 7 8 11 0 17 -7 16 -22z m-29 -2 c0 -3 -4 -8 -10 -11 -5 -3 -10 -1 -10 4
0 6 5 11 10 11 6 0 10 -2 10 -4z"/>
<path d="M780 1730 c-19 -19 -20 -31 -18 -237 l3 -217 34 -23 c22 -15 43 -21
65 -18 17 2 36 4 43 4 23 2 43 33 43 69 0 50 15 73 24 38 8 -33 58 -84 90 -92
14 -3 26 -10 26 -14 0 -4 24 -8 53 -9 69 -1 144 30 177 73 18 25 28 31 38 24
6 -6 12 -16 12 -22 1 -15 68 -65 99 -73 14 -3 44 -1 68 6 27 7 51 8 61 2 23
-11 92 -7 120 8 13 7 27 23 32 37 13 32 11 250 -1 292 -14 43 -51 61 -114 55
-60 -7 -68 -6 -120 2 -59 9 -115 -13 -145 -59 l-25 -38 -25 29 c-79 87 -252
85 -319 -4 -11 -15 -24 -32 -29 -38 -4 -5 -9 -14 -9 -18 -1 -5 -4 -11 -7 -15
-4 -3 -6 31 -5 75 1 98 -16 134 -76 163 -52 25 -70 25 -95 0z m90 -20 c22 -11
45 -30 52 -43 15 -28 20 -376 5 -394 -12 -16 -101 -17 -128 -3 -18 10 -19 23
-19 223 0 254 3 261 90 217z m689 -106 c22 -16 24 -16 33 0 14 24 88 21 122
-5 26 -20 26 -21 26 -161 0 -169 -4 -178 -86 -178 -29 0 -56 4 -59 10 -4 6
-18 4 -37 -6 -38 -20 -100 -14 -137 13 -94 68 -93 265 1 323 40 24 105 26 137
4z m-299 -13 c52 -27 80 -74 80 -132 l0 -49 -110 0 c-64 0 -110 -4 -110 -10 0
-5 10 -18 22 -30 20 -18 24 -19 44 -5 32 21 133 20 141 -1 16 -43 -88 -114
-167 -114 -127 1 -206 100 -180 223 12 59 32 86 81 116 45 28 149 29 199 2z"/>
<path d="M1512 1478 c-17 -17 -15 -73 3 -88 22 -18 64 -4 71 24 11 47 1 71
-31 74 -17 2 -36 -3 -43 -10z m58 -37 c0 -17 -4 -32 -9 -35 -17 -11 -41 6 -41
28 0 27 8 36 32 36 13 0 18 -8 18 -29z"/>
<path d="M1135 1490 c-18 -20 -17 -20 23 -20 47 0 49 2 26 24 -20 21 -27 20
-49 -4z"/>
<path d="M452 1723 c-128 -33 -193 -143 -170 -288 14 -93 51 -146 130 -186 43
-22 127 -25 179 -7 83 28 149 96 149 151 0 34 -25 47 -91 47 -41 0 -62 -6 -91
-27 -34 -23 -41 -25 -62 -13 -42 22 -51 115 -15 149 23 21 38 19 81 -11 37
-25 138 -25 161 0 24 26 21 41 -13 96 -27 42 -85 82 -135 92 -5 1 -21 4 -35 7
-14 3 -53 -1 -88 -10z m165 -32 c47 -22 105 -94 101 -126 -3 -17 -11 -20 -69
-23 -55 -2 -68 0 -84 18 -24 26 -78 27 -105 0 -23 -23 -28 -102 -9 -143 22
-49 80 -56 125 -15 17 15 33 18 85 16 62 -3 64 -4 61 -28 -13 -113 -191 -183
-309 -122 -127 66 -159 273 -60 381 55 60 180 80 264 42z"/>
<path d="M2222 1718 c-22 -22 -12 -61 28 -115 23 -29 38 -58 34 -65 -4 -6 -3
-8 3 -5 6 4 18 -4 26 -16 14 -22 13 -27 -14 -73 -15 -27 -40 -62 -53 -79 l-25
-30 -1 75 c-1 106 -13 147 -54 189 l-36 36 -165 0 c-103 0 -168 -4 -175 -11
-16 -16 -23 -337 -7 -358 9 -12 31 -16 90 -18 99 -2 106 6 107 119 0 84 6 113
21 113 5 0 9 -40 9 -89 0 -49 5 -102 10 -116 10 -26 11 -26 108 -25 53 0 135
-1 182 -2 l85 -3 25 38 25 39 30 -36 c29 -34 32 -35 107 -37 50 -1 83 3 93 11
18 15 20 54 2 72 -7 7 -16 20 -20 28 -4 8 -25 39 -47 69 -41 57 -41 69 -3 113
15 17 42 61 70 115 16 31 15 34 -2 53 -14 16 -31 20 -77 20 -61 0 -96 -15
-130 -55 -17 -20 -17 -20 -33 2 -35 49 -44 53 -124 53 -46 0 -82 -5 -89 -12z
m199 -55 c29 -42 34 -45 43 -28 37 62 51 70 127 70 57 0 74 -3 77 -15 1 -8
-25 -58 -59 -110 -40 -62 -58 -99 -53 -107 5 -7 35 -51 68 -97 35 -52 56 -91
53 -101 -5 -12 -23 -15 -81 -15 l-76 0 -37 50 -37 50 -29 -50 -29 -50 -73 0
c-105 0 -107 6 -29 128 37 59 62 108 58 115 -4 7 -34 50 -66 96 -33 46 -57 89
-54 97 4 10 26 14 85 14 l80 0 32 -47z m-459 -54 c3 -9 9 -9 25 0 35 18 114
13 151 -9 52 -32 63 -72 60 -213 l-3 -122 -80 0 -80 0 -5 113 c-4 85 -9 115
-20 122 -11 7 -20 4 -32 -11 -14 -17 -18 -40 -18 -115 0 -111 -5 -117 -103
-112 l-62 3 -3 165 c-1 90 0 170 2 177 7 17 163 18 168 2z"/>
<path d="M2773 1612 c9 -37 -13 -94 -49 -130 -24 -24 -33 -40 -29 -53 6 -17 8
-17 30 -3 50 33 83 153 54 194 -9 12 -10 10 -6 -8z"/>
<path d="M910 1016 c0 -9 7 -16 16 -16 17 0 14 22 -4 28 -7 2 -12 -3 -12 -12z"/>
<path d="M879 934 c-9 -11 -10 -20 -2 -32 24 -39 82 -15 68 28 -8 24 -47 27
-66 4z m43 -19 c0 -5 -5 -11 -10 -13 -5 -1 -9 4 -9 13 0 9 4 14 9 13 5 -2 10
-8 10 -13z"/>
<path d="M530 1976 c0 -9 7 -16 16 -16 17 0 14 22 -4 28 -7 2 -12 -3 -12 -12z"/>
<path d="M401 1924 c-12 -15 -21 -35 -21 -46 0 -24 44 -68 68 -68 33 0 72 38
72 71 0 65 -80 93 -119 43z m60 -7 c-8 -11 -6 -18 9 -32 27 -25 25 -43 -5 -51
-34 -8 -64 18 -60 53 3 28 20 43 49 43 14 0 16 -3 7 -13z m39 -12 c0 -8 -4
-15 -9 -15 -13 0 -22 16 -14 24 11 11 23 6 23 -9z"/>
<path d="M552 1908 c-18 -18 -14 -46 7 -58 38 -20 71 13 51 51 -12 21 -40 25
-58 7z m38 -28 c0 -5 -7 -7 -15 -4 -8 4 -15 8 -15 10 0 2 7 4 15 4 8 0 15 -4
15 -10z"/>
<path d="M2847 1824 c-8 -8 1 -24 14 -24 5 0 9 7 9 15 0 15 -12 20 -23 9z"/>
<path d="M2854 1745 c-8 -19 3 -35 26 -35 19 0 30 17 23 38 -6 17 -42 15 -49
-3z"/>
</g>
</svg>
