<?xml version="1.0" standalone="no"?>
<!DOCTYPE svg PUBLIC "-//W3C//DTD SVG 20010904//EN"
 "http://www.w3.org/TR/2001/REC-SVG-20010904/DTD/svg10.dtd">
<svg version="1.0" xmlns="http://www.w3.org/2000/svg"
 width="300.000000pt" height="300.000000pt" viewBox="0 0 300.000000 300.000000"
 preserveAspectRatio="xMidYMid meet">
<metadata>
Created by potrace 1.10, written by Peter Selinger 2001-2011
</metadata>
<g transform="translate(0.000000,300.000000) scale(0.100000,-0.100000)"
fill="#000000" stroke="none">
<path d="M822 2984 l-22 -15 0 -360 0 -359 -384 0 -385 0 -15 -22 c-25 -36
-20 -56 7 -30 23 22 27 22 399 22 329 0 379 2 392 16 14 13 16 61 16 367 0
346 0 351 22 374 26 27 6 32 -30 7z"/>
<path d="M2143 2982 c15 -16 17 -46 17 -209 0 -307 11 -522 27 -539 12 -12 80
-14 387 -14 363 0 374 -1 400 -21 30 -24 36 -8 10 29 l-15 22 -385 0 -384 0 0
359 0 360 -22 15 c-12 9 -29 16 -37 16 -11 0 -11 -3 2 -18z"/>
<path d="M884 2909 c-18 -20 -19 -50 -19 -939 0 -879 1 -919 19 -938 13 -16
30 -21 66 -20 66 0 116 -26 145 -77 33 -55 32 -106 -2 -173 l-27 -54 64 -60
65 -60 40 44 c22 24 59 59 83 77 23 18 42 39 42 46 0 7 -15 36 -34 64 -90 133
-36 294 112 337 46 14 64 15 106 5 97 -22 162 -92 166 -176 4 -93 0 -113 -35
-164 -19 -28 -35 -57 -35 -64 0 -14 31 -47 44 -47 4 0 33 -27 63 -60 l56 -59
58 50 c31 28 60 57 62 64 3 7 -5 34 -19 61 -61 121 10 243 144 245 90 2 82
-89 82 959 0 885 -1 928 -18 943 -17 15 -74 17 -614 17 -592 0 -595 0 -614
-21z m1216 -938 l0 -929 -40 5 c-49 7 -135 -32 -168 -76 -50 -68 -53 -158 -7
-225 l24 -35 -34 -21 c-19 -12 -42 -33 -53 -46 l-18 -26 -27 40 c-14 22 -47
55 -73 72 l-46 32 25 27 c106 113 76 298 -60 378 -41 24 -59 28 -123 28 -64 0
-82 -4 -123 -28 -137 -81 -166 -265 -60 -378 l25 -27 -46 -32 c-26 -17 -59
-50 -73 -72 l-27 -40 -18 26 c-11 13 -35 35 -54 47 -35 21 -35 21 -16 43 48
52 53 154 12 221 -36 58 -92 89 -161 90 l-59 0 0 928 0 927 600 0 600 0 0
-929z"/>
<path d="M1166 2784 c-24 -23 -24 -445 0 -468 13 -14 58 -16 334 -16 276 0
321 2 334 16 24 23 24 445 0 468 -13 14 -58 16 -334 16 -276 0 -321 -2 -334
-16z m642 -22 c9 -7 12 -57 10 -218 l-3 -209 -315 0 -315 0 -3 209 c-2 161 1
211 10 218 7 4 146 8 308 8 162 0 301 -4 308 -8z"/>
<path d="M1237 2712 c-23 -25 -25 -297 -3 -328 14 -18 28 -19 266 -19 238 0
252 1 266 19 11 15 14 56 14 166 0 130 -2 149 -18 163 -16 15 -50 17 -264 17
-225 0 -246 -2 -261 -18z m513 -162 l0 -150 -250 0 -250 0 0 150 0 150 250 0
250 0 0 -150z"/>
<path d="M1250 2150 l0 -50 50 0 50 0 0 50 0 50 -50 0 -50 0 0 -50z m60 -5 c0
-8 -7 -15 -15 -15 -8 0 -15 7 -15 15 0 8 7 15 15 15 8 0 15 -7 15 -15z"/>
<path d="M1450 2150 l0 -50 50 0 50 0 0 50 0 50 -50 0 -50 0 0 -50z m60 -5 c0
-8 -7 -15 -15 -15 -8 0 -15 7 -15 15 0 8 7 15 15 15 8 0 15 -7 15 -15z"/>
<path d="M1650 2150 l0 -50 50 0 50 0 0 50 0 50 -50 0 -50 0 0 -50z m68 -2
c-7 -19 -38 -22 -38 -4 0 10 9 16 21 16 12 0 19 -5 17 -12z"/>
<path d="M1050 1950 l0 -50 50 0 50 0 0 50 0 50 -50 0 -50 0 0 -50z m70 0 c0
-13 -7 -20 -20 -20 -13 0 -20 7 -20 20 0 13 7 20 20 20 13 0 20 -7 20 -20z"/>
<path d="M1250 1950 l0 -50 50 0 50 0 0 50 0 50 -50 0 -50 0 0 -50z m60 0 c0
-11 -7 -20 -15 -20 -8 0 -15 9 -15 20 0 11 7 20 15 20 8 0 15 -9 15 -20z"/>
<path d="M1450 1950 l0 -50 50 0 50 0 0 50 0 50 -50 0 -50 0 0 -50z m60 0 c0
-11 -7 -20 -15 -20 -8 0 -15 9 -15 20 0 11 7 20 15 20 8 0 15 -9 15 -20z"/>
<path d="M1650 1950 l0 -50 50 0 50 0 0 50 0 50 -50 0 -50 0 0 -50z m70 0 c0
-13 -7 -20 -20 -20 -13 0 -20 7 -20 20 0 13 7 20 20 20 13 0 20 -7 20 -20z"/>
<path d="M1850 1950 l0 -50 50 0 50 0 0 50 0 50 -50 0 -50 0 0 -50z m70 0 c0
-13 -7 -20 -20 -20 -13 0 -20 7 -20 20 0 13 7 20 20 20 13 0 20 -7 20 -20z"/>
<path d="M1050 1750 l0 -50 50 0 50 0 0 50 0 50 -50 0 -50 0 0 -50z m70 0 c0
-13 -7 -20 -20 -20 -13 0 -20 7 -20 20 0 13 7 20 20 20 13 0 20 -7 20 -20z"/>
<path d="M1250 1750 l0 -50 50 0 50 0 0 50 0 50 -50 0 -50 0 0 -50z m60 0 c0
-11 -7 -20 -15 -20 -8 0 -15 9 -15 20 0 11 7 20 15 20 8 0 15 -9 15 -20z"/>
<path d="M1450 1750 l0 -50 50 0 50 0 0 50 0 50 -50 0 -50 0 0 -50z m60 0 c0
-11 -7 -20 -15 -20 -8 0 -15 9 -15 20 0 11 7 20 15 20 8 0 15 -9 15 -20z"/>
<path d="M1650 1750 l0 -50 50 0 50 0 0 50 0 50 -50 0 -50 0 0 -50z m70 0 c0
-13 -7 -20 -20 -20 -13 0 -20 7 -20 20 0 13 7 20 20 20 13 0 20 -7 20 -20z"/>
<path d="M1850 1750 l0 -50 50 0 50 0 0 50 0 50 -50 0 -50 0 0 -50z m70 0 c0
-13 -7 -20 -20 -20 -13 0 -20 7 -20 20 0 13 7 20 20 20 13 0 20 -7 20 -20z"/>
<path d="M1050 1550 l0 -50 50 0 50 0 0 50 0 50 -50 0 -50 0 0 -50z m70 0 c0
-13 -7 -20 -20 -20 -13 0 -20 7 -20 20 0 13 7 20 20 20 13 0 20 -7 20 -20z"/>
<path d="M1250 1550 l0 -50 50 0 50 0 0 50 0 50 -50 0 -50 0 0 -50z m60 0 c0
-11 -7 -20 -15 -20 -8 0 -15 9 -15 20 0 11 7 20 15 20 8 0 15 -9 15 -20z"/>
<path d="M1450 1550 l0 -50 50 0 50 0 0 50 0 50 -50 0 -50 0 0 -50z m63 0 c-3
-11 -12 -20 -19 -20 -8 0 -14 9 -14 20 0 13 7 20 19 20 14 0 18 -5 14 -20z"/>
<path d="M1650 1550 l0 -50 50 0 50 0 0 50 0 50 -50 0 -50 0 0 -50z m70 0 c0
-13 -7 -20 -20 -20 -13 0 -20 7 -20 20 0 13 7 20 20 20 13 0 20 -7 20 -20z"/>
<path d="M1850 1550 l0 -50 50 0 50 0 0 50 0 50 -50 0 -50 0 0 -50z m70 0 c0
-13 -7 -20 -20 -20 -13 0 -20 7 -20 20 0 13 7 20 20 20 13 0 20 -7 20 -20z"/>
<path d="M1050 1350 l0 -50 50 0 50 0 0 50 0 50 -50 0 -50 0 0 -50z m70 0 c0
-13 -7 -20 -20 -20 -13 0 -20 7 -20 20 0 13 7 20 20 20 13 0 20 -7 20 -20z"/>
<path d="M1250 1350 l0 -50 50 0 50 0 0 50 0 50 -50 0 -50 0 0 -50z m60 0 c0
-11 -7 -20 -15 -20 -8 0 -15 9 -15 20 0 11 7 20 15 20 8 0 15 -9 15 -20z"/>
<path d="M1450 1350 l0 -50 50 0 50 0 0 50 0 50 -50 0 -50 0 0 -50z m60 0 c0
-11 -7 -20 -15 -20 -8 0 -15 9 -15 20 0 11 7 20 15 20 8 0 15 -9 15 -20z"/>
<path d="M1650 1350 l0 -50 50 0 50 0 0 50 0 50 -50 0 -50 0 0 -50z m70 0 c0
-13 -7 -20 -20 -20 -13 0 -20 7 -20 20 0 13 7 20 20 20 13 0 20 -7 20 -20z"/>
<path d="M1850 1350 l0 -50 50 0 50 0 0 50 0 50 -50 0 -50 0 0 -50z m70 0 c0
-13 -7 -20 -20 -20 -13 0 -20 7 -20 20 0 13 7 20 20 20 13 0 20 -7 20 -20z"/>
<path d="M87 2162 c-16 -17 -17 -91 -17 -864 0 -806 1 -846 18 -861 12 -11 35
-17 63 -17 41 0 48 5 113 70 l68 69 -27 56 c-43 87 -27 163 47 218 52 39 144
39 197 0 75 -56 90 -131 44 -221 l-27 -54 37 -34 c54 -50 73 -45 96 28 7 22
37 62 72 97 32 33 59 61 59 63 0 2 -11 25 -25 52 -32 62 -32 111 0 170 l25 47
0 583 c0 552 -1 584 -18 599 -17 15 -57 17 -364 17 -321 0 -346 -1 -361 -18z
m713 -594 l0 -583 -25 -49 c-14 -27 -25 -65 -25 -83 0 -37 22 -98 45 -123 12
-14 9 -20 -33 -50 -34 -25 -55 -53 -77 -97 -16 -35 -32 -62 -35 -62 -3 0 -16
8 -28 19 l-24 20 26 52 c33 65 33 115 1 177 -74 147 -276 146 -350 -2 -32 -65
-32 -110 1 -176 15 -28 25 -53 23 -55 -2 -1 -18 -12 -36 -25 -18 -12 -40 -35
-50 -51 -15 -27 -23 -30 -65 -30 l-48 0 0 850 0 850 350 0 350 0 0 -582z"/>
<path d="M250 1450 l0 -400 50 0 50 0 0 400 0 400 -50 0 -50 0 0 -400z m70 0
c0 -363 0 -370 -20 -370 -20 0 -20 7 -20 370 0 363 0 370 20 370 20 0 20 -7
20 -370z"/>
<path d="M550 1450 l0 -400 50 0 50 0 0 400 0 400 -50 0 -50 0 0 -400z m70 0
c0 -363 0 -370 -20 -370 -20 0 -20 7 -20 370 0 363 0 370 20 370 20 0 20 -7
20 -370z"/>
<path d="M2184 2159 c-18 -20 -19 -44 -19 -598 l1 -576 27 -49 c34 -62 34
-106 0 -174 l-27 -53 56 -54 c31 -30 67 -78 81 -109 15 -32 33 -56 42 -56 8 0
32 15 52 33 l36 34 -26 53 c-15 30 -27 69 -27 86 0 96 75 168 172 165 57 -1
96 -19 132 -61 36 -43 37 -141 4 -200 l-23 -39 70 -70 c66 -67 72 -71 116 -71
86 0 79 -74 79 882 0 806 -1 846 -18 861 -17 15 -57 17 -364 17 -338 0 -345 0
-364 -21z m716 -859 l0 -850 -48 0 c-43 0 -50 3 -66 30 -10 17 -35 43 -57 57
-36 23 -38 28 -25 42 23 26 46 87 46 124 0 49 -45 131 -88 161 -68 47 -163 44
-236 -7 -35 -25 -76 -109 -76 -158 0 -19 12 -59 26 -87 l26 -52 -24 -20 c-12
-11 -25 -19 -28 -19 -3 0 -18 27 -35 62 -22 44 -43 72 -77 97 -42 30 -45 36
-33 50 23 25 45 86 45 123 0 18 -11 56 -25 83 l-25 49 0 583 0 582 350 0 350
0 0 -850z"/>
<path d="M2350 1450 l0 -400 50 0 50 0 0 400 0 400 -50 0 -50 0 0 -400z m70 0
c0 -363 0 -370 -20 -370 -20 0 -20 7 -20 370 0 363 0 370 20 370 20 0 20 -7
20 -370z"/>
<path d="M2650 1450 l0 -400 50 0 50 0 0 400 0 400 -50 0 -50 0 0 -400z m70 0
c0 -363 0 -370 -20 -370 -20 0 -20 7 -20 370 0 363 0 370 20 370 20 0 20 -7
20 -370z"/>
<path d="M1422 1109 c-88 -44 -124 -147 -82 -234 32 -66 79 -98 148 -103 70
-4 112 16 156 77 63 87 30 213 -68 261 -54 26 -100 25 -154 -1z m144 -25 c106
-50 110 -203 8 -261 -105 -60 -232 19 -221 138 9 108 116 169 213 123z"/>
<path d="M868 942 c-49 -46 -57 -94 -27 -154 48 -93 178 -89 223 7 27 55 16
101 -33 148 -33 30 -48 37 -81 37 -33 0 -48 -7 -82 -38z m138 -10 c44 -35 55
-82 30 -131 -46 -88 -187 -50 -186 51 2 76 99 126 156 80z"/>
<path d="M1990 964 c-62 -39 -84 -107 -54 -169 32 -67 109 -94 174 -60 39 20
60 63 60 121 0 41 -5 51 -39 85 -32 32 -46 39 -77 39 -22 0 -50 -8 -64 -16z
m109 -28 c28 -15 51 -53 51 -86 0 -51 -49 -100 -99 -100 -72 0 -122 80 -90
143 28 54 83 71 138 43z"/>
<path d="M369 793 c-49 -47 -60 -93 -33 -148 32 -67 109 -94 174 -60 32 16 70
80 70 116 0 33 -38 92 -71 112 -51 29 -94 22 -140 -20z m130 -7 c67 -35 65
-143 -4 -174 -120 -55 -206 113 -90 176 28 16 61 15 94 -2z"/>
<path d="M2470 794 c-50 -45 -60 -89 -34 -146 58 -129 239 -88 239 55 0 44 -4
52 -42 88 -58 54 -106 55 -163 3z m123 -5 c35 -18 57 -51 57 -89 0 -100 -140
-137 -186 -49 -45 88 43 182 129 138z"/>
<path d="M1382 699 c-61 -30 -101 -71 -138 -139 -17 -31 -19 -62 -22 -246 -3
-185 -1 -213 13 -228 14 -14 48 -16 265 -16 217 0 251 2 265 16 14 15 16 42
13 223 -3 233 -11 263 -83 336 -89 88 -204 109 -313 54z m234 -30 c55 -28 108
-91 124 -147 5 -20 10 -124 10 -229 l0 -193 -251 0 -250 0 3 213 c3 211 3 212
31 259 69 118 212 159 333 97z"/>
<path d="M853 655 c-55 -28 -99 -77 -119 -134 -9 -24 -13 -98 -14 -227 0 -173
2 -192 18 -207 16 -15 46 -17 214 -17 176 0 196 2 211 18 15 16 17 45 17 199
0 197 -9 246 -55 306 -14 20 -50 47 -78 62 -67 33 -127 33 -194 0z m210 -42
c22 -15 51 -48 64 -72 22 -42 23 -54 23 -243 l0 -198 -201 0 -200 0 3 209 3
209 30 43 c17 23 50 53 75 67 61 32 145 27 203 -15z"/>
<path d="M1952 654 c-56 -28 -92 -67 -117 -127 -22 -54 -22 -418 1 -441 13
-14 47 -16 213 -16 181 0 199 2 215 19 15 16 17 43 16 207 -1 122 -6 202 -14
225 -20 57 -63 106 -119 134 -67 33 -127 33 -195 -1z m210 -40 c23 -16 52 -49
65 -73 22 -42 23 -54 23 -243 l0 -198 -200 0 -200 0 0 197 c0 179 2 200 21
240 22 46 70 89 116 103 53 17 130 6 175 -26z"/>
<path d="M352 504 c-56 -28 -92 -67 -117 -127 -22 -53 -21 -269 1 -291 13 -14
47 -16 213 -16 246 0 231 -10 231 154 0 125 -8 159 -55 221 -15 18 -50 45 -78
60 -67 33 -127 33 -195 -1z m210 -40 c23 -16 52 -49 65 -73 20 -39 23 -58 23
-168 l0 -123 -201 0 -201 0 4 134 c3 131 4 136 33 177 65 92 188 116 277 53z"/>
<path d="M2453 505 c-28 -14 -63 -42 -78 -60 -47 -62 -55 -96 -55 -223 0 -102
3 -121 18 -135 27 -25 402 -25 426 -1 22 21 23 223 2 282 -34 94 -106 151
-203 159 -49 4 -66 0 -110 -22z m209 -41 c23 -16 52 -49 65 -73 20 -39 23 -58
23 -168 l0 -123 -201 0 -201 0 4 134 c3 131 4 136 33 177 65 92 188 116 277
53z"/>
<path d="M5 400 c13 -44 24 -50 89 -50 l61 0 0 -162 0 -162 25 -13 c31 -15 38
-9 17 15 -14 16 -17 43 -17 173 0 107 -4 159 -12 167 -7 7 -37 12 -67 12 -43
0 -60 5 -79 23 l-24 22 7 -25z"/>
<path d="M2976 401 c-15 -17 -31 -21 -76 -21 -34 0 -62 -5 -67 -12 -6 -7 -13
-84 -16 -171 -4 -100 -11 -164 -18 -173 -17 -20 -7 -25 21 -11 l25 13 0 162 0
162 62 0 c55 0 64 3 79 25 21 33 14 52 -10 26z"/>
</g>
</svg>
